<svg width="24" height="25" viewBox="0 0 24 25" fill="none" xmlns="http://www.w3.org/2000/svg">
<path d="M6 21.1927C5.71667 21.1927 5.47917 21.1001 5.2875 20.9149C5.09583 20.7298 5 20.5003 5 20.2266V18.246C4.7 17.9239 4.45833 17.5656 4.275 17.1711C4.09167 16.7766 4 16.3459 4 15.8789V6.70052C4 5.36402 4.64167 4.3858 5.925 3.76585C7.20833 3.14591 9.23333 2.83594 12 2.83594C14.8667 2.83594 16.9167 3.13383 18.15 3.72962C19.3833 4.32541 20 5.31571 20 6.70052V15.8789C20 16.3459 19.9083 16.7766 19.725 17.1711C19.5417 17.5656 19.3 17.9239 19 18.246V20.2266C19 20.5003 18.9042 20.7298 18.7125 20.9149C18.5208 21.1001 18.2833 21.1927 18 21.1927H17C16.7167 21.1927 16.4792 21.1001 16.2875 20.9149C16.0958 20.7298 16 20.5003 16 20.2266V19.2604H8V20.2266C8 20.5003 7.90417 20.7298 7.7125 20.9149C7.52083 21.1001 7.28333 21.1927 7 21.1927H6ZM6 10.5651H18V7.66667H6V10.5651ZM8.5 16.362C8.91667 16.362 9.27083 16.2211 9.5625 15.9393C9.85417 15.6575 10 15.3153 10 14.9128C10 14.5102 9.85417 14.168 9.5625 13.8862C9.27083 13.6044 8.91667 13.4635 8.5 13.4635C8.08333 13.4635 7.72917 13.6044 7.4375 13.8862C7.14583 14.168 7 14.5102 7 14.9128C7 15.3153 7.14583 15.6575 7.4375 15.9393C7.72917 16.2211 8.08333 16.362 8.5 16.362ZM15.5 16.362C15.9167 16.362 16.2708 16.2211 16.5625 15.9393C16.8542 15.6575 17 15.3153 17 14.9128C17 14.5102 16.8542 14.168 16.5625 13.8862C16.2708 13.6044 15.9167 13.4635 15.5 13.4635C15.0833 13.4635 14.7292 13.6044 14.4375 13.8862C14.1458 14.168 14 14.5102 14 14.9128C14 15.3153 14.1458 15.6575 14.4375 15.9393C14.7292 16.2211 15.0833 16.362 15.5 16.362ZM6.45 5.73438H17.65C17.4 5.46063 16.8625 5.23117 16.0375 5.046C15.2125 4.86082 13.8833 4.76823 12.05 4.76823C10.2667 4.76823 8.9625 4.86887 8.1375 5.07015C7.3125 5.27143 6.75 5.49284 6.45 5.73438ZM8 17.3281H16C16.55 17.3281 17.0208 17.1389 17.4125 16.7605C17.8042 16.3821 18 15.9272 18 15.3958V12.4974H6V15.3958C6 15.9272 6.19583 16.3821 6.5875 16.7605C6.97917 17.1389 7.45 17.3281 8 17.3281Z" fill="#404040"/>
</svg>
