<svg width="108" height="108" viewBox="0 0 108 108" fill="none" xmlns="http://www.w3.org/2000/svg">
<path d="M62.64 11.22L71.44 28.965C72.64 31.435 75.84 33.805 78.54 34.255L94.485 36.93C104.685 38.645 107.085 46.105 99.735 53.465L87.335 65.965C85.235 68.08 84.085 72.165 84.735 75.09L88.285 90.565C91.085 102.815 84.635 107.55 73.885 101.15L58.935 92.225C56.235 90.615 51.785 90.615 49.035 92.225L34.095 101.15C23.395 107.55 16.895 102.76 19.695 90.565L23.245 75.09C23.895 72.165 22.745 68.08 20.645 65.965L8.24499 53.465C0.949992 46.1 3.29999 38.645 13.495 36.93L29.445 34.255C32.095 33.805 35.295 31.435 36.495 28.965L45.295 11.22C50.095 1.595 57.895 1.595 62.645 11.22" stroke="#E6A14E" stroke-width="7.5" stroke-linecap="round" stroke-linejoin="round"/>
</svg>
