<svg width="22" height="25" viewBox="0 0 22 25" fill="none" xmlns="http://www.w3.org/2000/svg">
<path d="M5.49984 21.875C5.24012 21.875 5.02241 21.7784 4.84671 21.5851C4.67102 21.3918 4.58317 21.1524 4.58317 20.8667V18.7996C4.30817 18.4635 4.08664 18.0895 3.91859 17.6778C3.75053 17.2661 3.6665 16.8165 3.6665 16.3292V6.74999C3.6665 5.35513 4.2547 4.33419 5.43109 3.68718C6.60748 3.04017 8.46373 2.71666 10.9998 2.71666C13.6276 2.71666 15.5068 3.02756 16.6373 3.64937C17.7679 4.27117 18.3332 5.30472 18.3332 6.74999V16.3292C18.3332 16.8165 18.2491 17.2661 18.0811 17.6778C17.913 18.0895 17.6915 18.4635 17.4165 18.7996V20.8667C17.4165 21.1524 17.3287 21.3918 17.153 21.5851C16.9773 21.7784 16.7596 21.875 16.4998 21.875H15.5832C15.3234 21.875 15.1057 21.7784 14.93 21.5851C14.7544 21.3918 14.6665 21.1524 14.6665 20.8667V19.8583H7.33317V20.8667C7.33317 21.1524 7.24532 21.3918 7.06963 21.5851C6.89393 21.7784 6.67623 21.875 6.4165 21.875H5.49984ZM5.49984 10.7833H16.4998V7.75833H5.49984V10.7833ZM7.7915 16.8333C8.17345 16.8333 8.4981 16.6863 8.76546 16.3922C9.03282 16.0981 9.1665 15.741 9.1665 15.3208C9.1665 14.9007 9.03282 14.5436 8.76546 14.2495C8.4981 13.9554 8.17345 13.8083 7.7915 13.8083C7.40956 13.8083 7.08491 13.9554 6.81755 14.2495C6.55018 14.5436 6.4165 14.9007 6.4165 15.3208C6.4165 15.741 6.55018 16.0981 6.81755 16.3922C7.08491 16.6863 7.40956 16.8333 7.7915 16.8333ZM14.2082 16.8333C14.5901 16.8333 14.9148 16.6863 15.1821 16.3922C15.4495 16.0981 15.5832 15.741 15.5832 15.3208C15.5832 14.9007 15.4495 14.5436 15.1821 14.2495C14.9148 13.9554 14.5901 13.8083 14.2082 13.8083C13.8262 13.8083 13.5016 13.9554 13.2342 14.2495C12.9669 14.5436 12.8332 14.9007 12.8332 15.3208C12.8332 15.741 12.9669 16.0981 13.2342 16.3922C13.5016 16.6863 13.8262 16.8333 14.2082 16.8333ZM5.91234 5.74166H16.179C15.9498 5.45597 15.4571 5.21649 14.7009 5.02322C13.9446 4.82996 12.7262 4.73333 11.0457 4.73333C9.41095 4.73333 8.21546 4.83836 7.45921 5.04843C6.70296 5.2585 6.18734 5.48958 5.91234 5.74166ZM7.33317 17.8417H14.6665C15.1707 17.8417 15.6023 17.6442 15.9613 17.2493C16.3203 16.8543 16.4998 16.3796 16.4998 15.825V12.8H5.49984V15.825C5.49984 16.3796 5.67935 16.8543 6.03838 17.2493C6.39741 17.6442 6.829 17.8417 7.33317 17.8417Z" fill="#386DE8"/>
</svg>
