<svg width="108" height="61" viewBox="0 0 108 61" fill="none" xmlns="http://www.w3.org/2000/svg">
<path d="M32.8996 1.84997C32.1965 1.14772 31.2434 0.753273 30.2496 0.753273C29.2559 0.753273 28.3028 1.14772 27.5996 1.84997L1.34963 28.1C0.647378 28.8031 0.25293 29.7562 0.25293 30.75C0.25293 31.7437 0.647378 32.6968 1.34963 33.4L27.5996 59.65C28.3105 60.3124 29.2507 60.673 30.2222 60.6558C31.1937 60.6387 32.1207 60.2451 32.8077 59.5581C33.4948 58.871 33.8884 57.9441 33.9055 56.9726C33.9226 56.0011 33.562 55.0608 32.8996 54.35L13.0496 34.5H94.9496L75.0996 54.35C74.7312 54.6933 74.4357 55.1073 74.2307 55.5673C74.0258 56.0273 73.9156 56.5238 73.9067 57.0274C73.8978 57.5309 73.9904 58.031 74.179 58.498C74.3676 58.9649 74.6483 59.3891 75.0044 59.7452C75.3605 60.1013 75.7847 60.382 76.2516 60.5706C76.7186 60.7592 77.2187 60.8518 77.7222 60.8429C78.2258 60.834 78.7223 60.7238 79.1823 60.5189C79.6423 60.3139 80.0563 60.0184 80.3996 59.65L106.65 33.4C107.352 32.6968 107.746 31.7437 107.746 30.75C107.746 29.7562 107.352 28.8031 106.65 28.1L80.3996 1.84997C80.0563 1.48154 79.6423 1.18603 79.1823 0.981068C78.7223 0.776108 78.2258 0.665901 77.7222 0.657017C77.2187 0.648133 76.7186 0.740755 76.2516 0.92936C75.7847 1.11796 75.3605 1.39869 75.0044 1.75478C74.6483 2.11088 74.3676 2.53504 74.179 3.00199C73.9904 3.46893 73.8978 3.96907 73.9067 4.47259C73.9156 4.9761 74.0258 5.47267 74.2307 5.93266C74.4357 6.39266 74.7312 6.80666 75.0996 7.14997L94.9496 27H13.0496L32.8996 7.14997C33.6019 6.44685 33.9963 5.49373 33.9963 4.49997C33.9963 3.50622 33.6019 2.5531 32.8996 1.84997Z" fill="#333333"/>
</svg>
