<svg width="15" height="16" viewBox="0 0 15 16" fill="none" xmlns="http://www.w3.org/2000/svg">
<rect x="0.5" y="0.687454" width="14" height="14" rx="7" fill="white"/>
<rect x="0.5" y="0.687454" width="14" height="14" rx="7" stroke="#999999"/>
<path fill-rule="evenodd" clip-rule="evenodd" d="M7.85367 9.54096C7.75991 9.63469 7.63275 9.68735 7.50017 9.68735C7.36759 9.68735 7.24044 9.63469 7.14667 9.54096L4.31817 6.71246C4.27042 6.66633 4.23233 6.61116 4.20612 6.55016C4.17992 6.48916 4.16612 6.42355 4.16555 6.35716C4.16497 6.29077 4.17762 6.22493 4.20276 6.16348C4.2279 6.10203 4.26503 6.04621 4.31197 5.99926C4.35892 5.95231 4.41475 5.91519 4.47619 5.89005C4.53764 5.86491 4.60348 5.85226 4.66987 5.85283C4.73626 5.85341 4.80187 5.8672 4.86287 5.89341C4.92388 5.91961 4.97905 5.9577 5.02517 6.00546L7.50017 8.48046L9.97517 6.00546C10.0695 5.91438 10.1958 5.86398 10.3269 5.86512C10.458 5.86626 10.5834 5.91884 10.6761 6.01155C10.7688 6.10425 10.8214 6.22966 10.8225 6.36076C10.8236 6.49186 10.7733 6.61816 10.6822 6.71246L7.85367 9.54096Z" fill="#999999"/>
</svg>
