<svg width="104" height="109" viewBox="0 0 104 109" fill="none" xmlns="http://www.w3.org/2000/svg">
<path d="M46.6 3.33999C47.1503 2.39579 47.9385 1.61236 48.886 1.06786C49.8335 0.523359 50.9072 0.236816 52 0.236816C53.0929 0.236816 54.1666 0.523359 55.1141 1.06786C56.0616 1.61236 56.8498 2.39579 57.4 3.33999L71.375 27.33L98.515 33.21C99.5826 33.442 100.571 33.9497 101.381 34.6827C102.191 35.4156 102.795 36.348 103.132 37.3871C103.47 38.4262 103.529 39.5355 103.304 40.6046C103.079 41.6737 102.578 42.6651 101.85 43.48L83.35 64.185L86.15 91.81C86.2605 92.8978 86.0837 93.9955 85.6372 94.9936C85.1907 95.9916 84.4902 96.8551 83.6057 97.4978C82.7211 98.1404 81.6835 98.5398 80.5963 98.656C79.5091 98.7722 78.4105 98.6012 77.41 98.16L52 86.96L26.59 98.16C25.5896 98.6012 24.491 98.7722 23.4038 98.656C22.3166 98.5398 21.279 98.1404 20.3944 97.4978C19.5098 96.8551 18.8094 95.9916 18.3629 94.9936C17.9164 93.9955 17.7396 92.8978 17.85 91.81L20.65 64.185L2.15005 43.485C1.42119 42.6701 0.918825 41.6783 0.693116 40.6086C0.467408 39.5389 0.526249 38.4286 0.863766 37.3888C1.20128 36.3489 1.80567 35.4157 2.61658 34.6825C3.42749 33.9492 4.41656 33.4415 5.48505 33.21L32.625 27.33L46.6 3.33999Z" fill="#E6A14E"/>
</svg>
