<svg width="24" height="25" viewBox="0 0 24 25" fill="none" xmlns="http://www.w3.org/2000/svg">
<path d="M22.4229 9.71309C22.3292 9.43459 22.1522 9.18913 21.9143 9.00764C21.6764 8.82615 21.3882 8.71674 21.0861 8.6932L15.5548 8.26206L13.4192 3.27222C13.3037 3.00033 13.1071 2.76775 12.8545 2.60407C12.6018 2.44039 12.3045 2.353 12.0003 2.353C11.6961 2.353 11.3988 2.44039 11.1461 2.60407C10.8934 2.76775 10.6969 3.00033 10.5814 3.27222L8.44763 8.26116L2.91357 8.6932C2.61092 8.71793 2.32256 8.8284 2.08461 9.01077C1.84666 9.19314 1.6697 9.43929 1.57591 9.71839C1.48212 9.9975 1.47566 10.2971 1.55735 10.5798C1.63904 10.8624 1.80524 11.1155 2.03513 11.3072L6.25388 14.8243L4.96857 20.0832C4.89669 20.3689 4.91429 20.6688 5.01914 20.9448C5.12399 21.2208 5.31136 21.4605 5.55747 21.6334C5.80358 21.8064 6.09732 21.9048 6.40142 21.9161C6.70552 21.9275 7.00625 21.8513 7.26544 21.6972L11.9998 18.8821L16.737 21.6972C16.9963 21.8495 17.2964 21.9242 17.5996 21.912C17.9027 21.8998 18.1954 21.8012 18.4406 21.6286C18.6859 21.456 18.8728 21.2172 18.9779 20.9422C19.083 20.6672 19.1015 20.3683 19.0311 20.0832L17.7411 14.8234L21.9598 11.3063C22.1916 11.1149 22.3593 10.8613 22.4417 10.5776C22.5242 10.294 22.5176 9.99312 22.4229 9.71309ZM20.9848 10.2085L16.4192 14.0127C16.3151 14.0994 16.2376 14.2121 16.1953 14.3385C16.153 14.4648 16.1474 14.6 16.1792 14.7292L17.5742 20.4174C17.5778 20.4252 17.5782 20.4341 17.5752 20.4422C17.5722 20.4503 17.5662 20.457 17.5583 20.4609C17.5414 20.4735 17.5367 20.4708 17.5226 20.4609L12.3926 17.413C12.2745 17.3428 12.1385 17.3056 11.9998 17.3056C11.8611 17.3056 11.7252 17.3428 11.607 17.413L6.47701 20.4627C6.46294 20.4708 6.45919 20.4735 6.44138 20.4627C6.43347 20.4588 6.42741 20.4521 6.42444 20.444C6.42147 20.4359 6.42183 20.427 6.42544 20.4192L7.82044 14.731C7.85224 14.6018 7.84667 14.4666 7.80434 14.3403C7.76201 14.2139 7.68456 14.1013 7.58044 14.0146L3.01482 10.2104C3.00357 10.2013 2.99326 10.1931 3.00263 10.1651C3.01201 10.137 3.01951 10.1406 3.03357 10.1388L9.02607 9.67143C9.16352 9.66004 9.29505 9.61224 9.4062 9.5333C9.51735 9.45436 9.60381 9.34733 9.65607 9.22398L11.9642 3.82473C11.9717 3.80934 11.9745 3.80209 11.997 3.80209C12.0195 3.80209 12.0223 3.80934 12.0298 3.82473L14.3436 9.22398C14.3963 9.34737 14.4833 9.45429 14.595 9.53293C14.7067 9.61156 14.8386 9.65887 14.9764 9.66961L20.9689 10.137C20.9829 10.137 20.9914 10.137 20.9998 10.1633C21.0083 10.1895 20.9998 10.1995 20.9848 10.2085Z" fill="#999999"/>
</svg>
