<svg width="118" height="104" viewBox="0 0 118 104" fill="none" xmlns="http://www.w3.org/2000/svg">
<path fill-rule="evenodd" clip-rule="evenodd" d="M55.5565 1.37211C56.4537 0.492625 57.66 0 58.9165 0C60.1729 0 61.3792 0.492625 62.2765 1.37211L116.276 54.4921C117.135 55.3937 117.609 56.5934 117.6 57.8382C117.59 59.0829 117.098 60.2753 116.226 61.1638C115.354 62.0522 114.171 62.5673 112.927 62.6002C111.683 62.6331 110.474 62.1813 109.556 61.3401L102.916 54.8121V99.5961C102.916 100.657 102.495 101.674 101.745 102.425C100.995 103.175 99.9773 103.596 98.9165 103.596H18.9165C17.8556 103.596 16.8382 103.175 16.088 102.425C15.3379 101.674 14.9165 100.657 14.9165 99.5961V54.8121L8.27646 61.3401C7.83235 61.8066 7.2989 62.1789 6.70789 62.4349C6.11687 62.6909 5.48038 62.8254 4.83632 62.8303C4.19226 62.8351 3.5538 62.7103 2.95898 62.4633C2.36416 62.2163 1.82514 61.8521 1.37402 61.3923C0.922904 60.9326 0.568919 60.3868 0.333151 59.7875C0.097383 59.1881 -0.0153464 58.5474 0.00167699 57.9035C0.0187004 57.2597 0.165129 56.6258 0.43224 56.0398C0.699351 55.4537 1.08168 54.9273 1.55646 54.4921L55.5565 1.37211ZM58.9165 11.5321L94.9165 46.9401V95.5961H78.9165V67.5961C78.9165 66.5352 78.495 65.5178 77.7449 64.7677C76.9947 64.0175 75.9773 63.5961 74.9165 63.5961H50.9165C49.8556 63.5961 48.8382 64.0175 48.088 64.7677C47.3379 65.5178 46.9165 66.5352 46.9165 67.5961V95.5961H22.9165V46.9401L58.9165 11.5321ZM54.9165 95.5961H70.9165V71.5961H54.9165V95.5961Z" fill="#E5A14E"/>
</svg>
