<svg width="14" height="15" viewBox="0 0 14 15" fill="none" xmlns="http://www.w3.org/2000/svg">
<g clip-path="url(#clip0_35_32)">
<path d="M10.2622 11.4685C9.34662 12.3541 8.14157 12.9055 6.85235 13.029C5.56313 13.1524 4.2695 12.8401 3.19186 12.1453C2.11422 11.4506 1.31925 10.4163 0.942376 9.21879C0.565506 8.02125 0.630058 6.7345 1.12503 5.57779C1.62001 4.42107 2.51479 3.46594 3.65692 2.87513C4.79905 2.28432 6.11787 2.09439 7.3887 2.33768C8.65952 2.58098 9.80373 3.24245 10.6264 4.20941C11.449 5.17636 11.8992 6.38898 11.9002 7.64065H10.5002C10.501 6.70181 10.1649 5.79173 9.5491 5.06549C8.93327 4.33925 8.07585 3.84179 7.12294 3.65788C6.17002 3.47397 5.18059 3.61499 4.32323 4.05691C3.46588 4.49883 2.79365 5.2143 2.42111 6.08141C2.04857 6.94851 1.99876 7.9136 2.28017 8.81221C2.56158 9.71082 3.1568 10.4873 3.9644 11.0095C4.772 11.5316 5.74201 11.767 6.70913 11.6756C7.67625 11.5842 8.58064 11.1716 9.26819 10.5082L10.2622 11.4685ZM8.40019 7.64065H14.0002L11.2002 10.3459L8.40019 7.64065Z" fill="#767676"/>
</g>
<defs>
<clipPath id="clip0_35_32">
<rect width="14" height="13.526" fill="white" transform="translate(0 0.877625)"/>
</clipPath>
</defs>
</svg>
