<svg width="98" height="98" viewBox="0 0 98 98" fill="none" xmlns="http://www.w3.org/2000/svg">
<path d="M48.75 0C39.1082 0 29.6829 2.85914 21.666 8.21586C13.6491 13.5726 7.40067 21.1863 3.71089 30.0942C0.0211226 39.0021 -0.94429 48.8041 0.93674 58.2607C2.81777 67.7172 7.46076 76.4036 14.2786 83.2215C21.0964 90.0393 29.7828 94.6823 39.2394 96.5633C48.6959 98.4443 58.4979 97.4789 67.4058 93.7891C76.3137 90.0994 83.9274 83.8509 89.2842 75.834C94.6409 67.8171 97.5 58.3918 97.5 48.75C97.4864 35.8249 92.3458 23.4331 83.2064 14.2936C74.067 5.15418 61.6751 0.0136492 48.75 0ZM48.75 90C40.5915 90 32.6163 87.5807 25.8327 83.0481C19.0492 78.5155 13.7621 72.0731 10.64 64.5357C7.51788 56.9982 6.70099 48.7042 8.29263 40.7025C9.88427 32.7008 13.813 25.3508 19.5819 19.5818C25.3508 13.8129 32.7008 9.88425 40.7025 8.29261C48.7043 6.70097 56.9983 7.51785 64.5357 10.64C72.0732 13.7621 78.5155 19.0492 83.0481 25.8327C87.5808 32.6163 90 40.5915 90 48.75C89.9876 59.6864 85.6377 70.1713 77.9045 77.9045C70.1713 85.6376 59.6864 89.9876 48.75 90ZM78.75 48.75C78.75 49.7446 78.3549 50.6984 77.6517 51.4017C76.9484 52.1049 75.9946 52.5 75 52.5H48.75C47.7555 52.5 46.8016 52.1049 46.0984 51.4017C45.3951 50.6984 45 49.7446 45 48.75V22.5C45 21.5054 45.3951 20.5516 46.0984 19.8484C46.8016 19.1451 47.7555 18.75 48.75 18.75C49.7446 18.75 50.6984 19.1451 51.4017 19.8484C52.1049 20.5516 52.5 21.5054 52.5 22.5V45H75C75.9946 45 76.9484 45.3951 77.6517 46.0984C78.3549 46.8016 78.75 47.7554 78.75 48.75Z" fill="#E6A14E"/>
</svg>
