<svg width="24" height="24" viewBox="0 0 24 24" fill="none" xmlns="http://www.w3.org/2000/svg">
<path d="M23.25 5.25H19.5V4.5C19.5 3.90326 19.2629 3.33097 18.841 2.90901C18.419 2.48705 17.8467 2.25 17.25 2.25H12.75C12.1533 2.25 11.581 2.48705 11.159 2.90901C10.7371 3.33097 10.5 3.90326 10.5 4.5V5.25H6.75C6.55109 5.25 6.36032 5.32902 6.21967 5.46967C6.07902 5.61032 6 5.80109 6 6C6 6.19891 6.07902 6.38968 6.21967 6.53033C6.36032 6.67098 6.55109 6.75 6.75 6.75H7.5V20.25C7.5 20.6478 7.65804 21.0294 7.93934 21.3107C8.22064 21.592 8.60218 21.75 9 21.75H21C21.3978 21.75 21.7794 21.592 22.0607 21.3107C22.342 21.0294 22.5 20.6478 22.5 20.25V6.75H23.25C23.4489 6.75 23.6397 6.67098 23.7803 6.53033C23.921 6.38968 24 6.19891 24 6C24 5.80109 23.921 5.61032 23.7803 5.46967C23.6397 5.32902 23.4489 5.25 23.25 5.25ZM12 4.5C12 4.30109 12.079 4.11032 12.2197 3.96967C12.3603 3.82902 12.5511 3.75 12.75 3.75H17.25C17.4489 3.75 17.6397 3.82902 17.7803 3.96967C17.921 4.11032 18 4.30109 18 4.5V5.25H12V4.5ZM21 20.25H9V6.75H21V20.25ZM13.5 10.5V16.5C13.5 16.6989 13.421 16.8897 13.2803 17.0303C13.1397 17.171 12.9489 17.25 12.75 17.25C12.5511 17.25 12.3603 17.171 12.2197 17.0303C12.079 16.8897 12 16.6989 12 16.5V10.5C12 10.3011 12.079 10.1103 12.2197 9.96967C12.3603 9.82902 12.5511 9.75 12.75 9.75C12.9489 9.75 13.1397 9.82902 13.2803 9.96967C13.421 10.1103 13.5 10.3011 13.5 10.5ZM18 10.5V16.5C18 16.6989 17.921 16.8897 17.7803 17.0303C17.6397 17.171 17.4489 17.25 17.25 17.25C17.0511 17.25 16.8603 17.171 16.7197 17.0303C16.579 16.8897 16.5 16.6989 16.5 16.5V10.5C16.5 10.3011 16.579 10.1103 16.7197 9.96967C16.8603 9.82902 17.0511 9.75 17.25 9.75C17.4489 9.75 17.6397 9.82902 17.7803 9.96967C17.921 10.1103 18 10.3011 18 10.5Z" fill="#E37653"/>
</svg>
