<svg width="15" height="18" viewBox="0 0 15 18" fill="none" xmlns="http://www.w3.org/2000/svg">
<path d="M1 18C0.716667 18 0.479333 17.904 0.288 17.712C0.0966668 17.52 0.000666667 17.2827 0 17V6C0 4.33333 0.583333 2.91667 1.75 1.75C2.91667 0.583333 4.33333 0 6 0C7.66667 0 9.08333 0.583333 10.25 1.75C11.4167 2.91667 12 4.33333 12 6V10.2L12.9 9.3C13.0833 9.11667 13.3167 9.025 13.6 9.025C13.8833 9.025 14.1167 9.11667 14.3 9.3C14.4833 9.48333 14.575 9.71667 14.575 10C14.575 10.2833 14.4833 10.5167 14.3 10.7L11.7 13.3C11.6 13.4 11.4917 13.471 11.375 13.513C11.2583 13.555 11.1333 13.5757 11 13.575C10.8667 13.5743 10.7417 13.5537 10.625 13.513C10.5083 13.4723 10.4 13.4013 10.3 13.3L7.7 10.7C7.51667 10.5167 7.425 10.2833 7.425 10C7.425 9.71667 7.51667 9.48333 7.7 9.3C7.88333 9.11667 8.11667 9.025 8.4 9.025C8.68333 9.025 8.91667 9.11667 9.1 9.3L10 10.2V6C10 4.9 9.60833 3.95833 8.825 3.175C8.04167 2.39167 7.1 2 6 2C4.9 2 3.95833 2.39167 3.175 3.175C2.39167 3.95833 2 4.9 2 6V17C2 17.2833 1.904 17.521 1.712 17.713C1.52 17.905 1.28267 18.0007 1 18Z" fill="white"/>
</svg>
