<svg width="120" height="120" viewBox="0 0 120 120" fill="none" xmlns="http://www.w3.org/2000/svg">
<circle cx="60" cy="60" r="60" fill="#E5A14E"/>
<g clip-path="url(#clip0_103_181)">
<path d="M50.4767 23.4513C46.2237 26.6159 45.0809 31.6266 45.2902 34.2931C45.5581 37.5541 46.2195 41.7987 46.2195 41.7987C46.2195 41.7987 44.9093 42.5104 44.9093 45.3736C45.3656 52.5611 47.7684 49.4592 48.2623 52.6113C49.4511 60.2048 52.1679 58.8527 52.1679 62.9969C52.1679 69.8997 49.3214 73.1271 40.4344 76.9531C31.5181 80.7959 22.3256 85.6308 22.3256 94.0029V98.189H97.6744V94.0029C97.6744 85.6308 88.4777 80.7959 79.5572 76.9573C70.6702 73.1313 67.8321 69.908 67.8321 63.0011C67.8321 58.8569 70.5404 60.209 71.7335 52.6155C72.2316 49.4634 74.6302 52.5652 75.0949 45.3778C75.0949 42.5145 73.7804 41.8029 73.7804 41.8029C73.7804 41.8029 74.4418 37.5583 74.7056 34.2973C74.9777 30.8773 73.0395 23.5769 65.0777 21.3373C63.6837 19.9141 62.7418 17.6494 67.0284 15.3764C57.6516 14.9369 55.4707 19.8429 50.4767 23.4513Z" fill="white"/>
</g>
<defs>
<clipPath id="clip0_103_181">
<rect width="83.7209" height="83.7209" fill="white" transform="translate(18.1395 14.6512)"/>
</clipPath>
</defs>
</svg>
